<?xml version="1.0" encoding="utf-8"?>
<svg width="120" height="33" viewBox="0 0 120 33" fill="none" xmlns="http://www.w3.org/2000/svg">
<path d="M43.9949 23.5671C42.6663 22.8547 41.6071 21.8535 40.8561 20.5827C40.0859 19.3119 39.72 17.8679 39.72 16.2698C39.72 14.6717 40.1051 13.2276 40.8561 11.9568C41.6264 10.686 42.6663 9.68482 43.9949 8.97241C45.3236 8.26001 46.8256 7.89418 48.4817 7.89418C49.8874 7.89418 51.1583 8.14448 52.2752 8.62584C53.4113 9.12645 54.3549 9.8196 55.1252 10.7438L52.7181 12.958C51.6205 11.6873 50.2725 11.0711 48.655 11.0711C47.6537 11.0711 46.7679 11.2829 45.9784 11.7258C45.1888 12.1686 44.5726 12.7847 44.149 13.5549C43.7061 14.3443 43.4943 15.23 43.4943 16.2312C43.4943 17.2325 43.7061 18.1182 44.149 18.9076C44.5919 19.697 45.2081 20.3131 45.9784 20.7367C46.7679 21.1796 47.6537 21.3914 48.655 21.3914C50.2725 21.3914 51.6205 20.756 52.7181 19.466L55.1252 21.6802C54.3549 22.6236 53.3921 23.336 52.256 23.8367C51.1198 24.3373 49.8489 24.5683 48.4432 24.5683C46.8064 24.6453 45.3236 24.2795 43.9949 23.5671Z" fill="black"/>
<path d="M67.3915 24.3756L64.272 19.8701H60.8251V24.3756H57.0893V8.20206H64.0987C65.5236 8.20206 66.7753 8.43311 67.8344 8.91446C68.8935 9.39582 69.7023 10.0697 70.28 10.9554C70.8577 11.8411 71.1273 12.8808 71.1273 14.0746C71.1273 15.2683 70.8384 16.3081 70.2607 17.1745C69.683 18.041 68.855 18.7148 67.7959 19.177L71.4161 24.3756H67.3915ZM66.448 11.9759C65.8703 11.4945 65.0037 11.2442 63.8868 11.2442H60.8443V16.8857H63.8868C65.0037 16.8857 65.8703 16.6354 66.448 16.154C67.0256 15.6534 67.3337 14.9603 67.3337 14.0746C67.3145 13.1504 67.0256 12.4572 66.448 11.9759Z" fill="black"/>
<path d="M75.2867 22.7197C73.9965 21.4489 73.361 19.6198 73.361 17.2515V8.20206H77.0967V17.1168C77.0967 20.0049 78.2907 21.4682 80.6977 21.4682C81.8724 21.4682 82.7581 21.1216 83.3743 20.4092C83.9905 19.7161 84.2987 18.6186 84.2987 17.1168V8.20206H87.9959V17.2515C87.9959 19.6198 87.3604 21.4489 86.0702 22.7197C84.7801 23.9905 82.9892 24.6451 80.6784 24.6451C78.3677 24.6451 76.5576 24.0098 75.2867 22.7197Z" fill="black"/>
<path d="M94.389 23.5671C93.0603 22.8547 92.0012 21.8535 91.2502 20.5827C90.48 19.3119 90.1141 17.8678 90.1141 16.2698C90.1141 14.6717 90.4992 13.2276 91.2502 11.9568C92.0205 10.686 93.0603 9.68481 94.389 8.97241C95.7177 8.26 97.2197 7.89417 98.8758 7.89417C100.281 7.89417 101.552 8.14448 102.669 8.62583C103.805 9.12644 104.749 9.81959 105.519 10.7438L103.112 12.958C102.015 11.6873 100.667 11.0711 99.0491 11.0711C98.0477 11.0711 97.1619 11.2829 96.3724 11.7258C95.5829 12.1686 94.9667 12.7847 94.5431 13.5549C94.1002 14.3443 93.8883 15.23 93.8883 16.2312C93.8883 17.2325 94.1002 18.1182 94.5431 18.9076C94.986 19.697 95.6022 20.3131 96.3724 20.7367C97.1619 21.1796 98.0477 21.3914 99.0491 21.3914C100.667 21.3914 102.015 20.756 103.112 19.4659L105.519 21.6802C104.749 22.6236 103.786 23.336 102.65 23.8367C101.514 24.3373 100.243 24.5683 98.8372 24.5683C97.2197 24.6453 95.7177 24.2795 94.389 23.5671Z" fill="black"/>
<path d="M120 24.3756H107.483V8.20206H119.711V11.2057H111.2V14.71H118.71V17.6174H111.2V21.3527H120V24.3756Z" fill="black"/>
<path d="M20.5635 18.4263C19.6971 18.8498 18.8306 19.2734 18.0219 19.7933C17.4443 20.1591 16.963 20.6982 16.4046 21.1796C15.2493 19.9666 13.9593 19.0231 12.419 18.484C12.1879 18.407 11.8028 18.407 11.668 18.5418C11.3792 18.8691 11.7258 19.1001 11.9761 19.2734C13.1506 20.0821 14.1326 21.0448 14.3636 22.5274C14.7295 24.9727 14.7102 27.4372 14.1711 29.844C13.9015 31.0185 13.2469 31.9812 12.0146 32.6551C13.4972 32.8669 14.691 32.5396 15.7692 31.8657C16.2313 31.5769 16.5779 31.5576 17.04 31.8657C18.1375 32.5588 19.3312 32.8284 20.6405 32.6936C20.6405 32.6358 20.6405 32.5781 20.6213 32.5781C19.3697 31.8464 18.7728 30.6719 18.5033 29.3049C18.0989 27.1869 18.1952 25.0304 18.3685 22.8932C18.484 21.4299 19.3312 20.3324 20.5057 19.4852C20.6598 19.3697 20.8523 19.2927 20.9486 19.1579C21.0641 19.0039 21.1026 18.7921 21.1796 18.5995C20.9678 18.5225 20.6983 18.3492 20.5635 18.4263Z" fill="black"/>
<path d="M19.0232 16.7704C20.7368 17.6946 23.0858 16.7897 23.6827 14.9606C22.0076 13.9593 19.3505 14.9991 19.0232 16.7704Z" fill="black"/>
<path d="M9.10722 14.9413C9.72335 16.7705 12.0146 17.6562 13.8052 16.7897C13.3816 14.9991 10.9364 14.0171 9.10722 14.9413Z" fill="black"/>
<path d="M22.874 18.0219C23.9715 19.5623 26.0702 19.7548 27.264 18.4455C26.4168 16.9052 24.1448 16.6741 22.874 18.0219Z" fill="black"/>
<path d="M8.85694 12.7655C8.37558 11.0134 6.37315 10.1854 4.81356 11.0711C4.90983 12.4574 7.22033 13.8437 8.85694 12.7655Z" fill="black"/>
<path d="M9.91588 18.0413C8.81839 16.6935 6.56565 16.8861 5.52592 18.4264C6.56565 19.7357 8.89541 19.5431 9.91588 18.0413Z" fill="black"/>
<path d="M9.60781 9.35755C9.70408 7.56691 8.04822 6.08434 6.35385 6.48868C6.04579 8.24081 8.14449 9.89667 9.60781 9.35755Z" fill="black"/>
<path d="M23.9329 12.7464C25.377 13.7091 27.5142 12.8427 27.9956 11.0905C26.6093 10.0893 24.2218 11.129 23.9329 12.7464Z" fill="black"/>
<path d="M23.2013 9.37689C24.9727 9.72346 26.513 8.37567 26.4745 6.50801C24.8572 5.96889 22.874 7.75953 23.2013 9.37689Z" fill="black"/>
<path d="M17.0977 11.0518C15.4611 11.6295 14.8257 13.7859 15.8655 15.23C17.5406 14.4983 18.1567 12.4381 17.0977 11.0518Z" fill="black"/>
<path d="M13.5742 6.8352C14.8257 5.64144 14.4406 3.46571 12.8425 2.63778C11.591 3.87005 11.9761 6.08428 13.5742 6.8352Z" fill="black"/>
<path d="M29.6707 14.9412C28.477 13.6126 26.3397 13.7859 25.377 15.2877C26.4745 16.597 28.7465 16.4045 29.6707 14.9412Z" fill="black"/>
<path d="M3.13843 14.9412C4.04338 16.3853 6.08432 16.5778 7.41286 15.3071C6.50791 13.786 4.21667 13.6127 3.13843 14.9412Z" fill="black"/>
<path d="M19.9474 2.61861C18.33 3.56206 17.9834 5.54525 19.1772 6.83528C20.7753 6.29616 21.1604 3.69684 19.9474 2.61861Z" fill="black"/>
<path d="M17.271 9.49238C18.3107 8.06757 17.7524 6.14215 16.135 5.37198C15.0568 6.46947 15.6922 9.01103 17.271 9.49238Z" fill="black"/>
<path d="M14.6909 10.4937C14.768 8.85706 13.4972 7.75957 11.5718 7.72106C11.1289 9.18438 12.8425 10.7055 14.6909 10.4937Z" fill="black"/>
<path d="M13.4779 13.4971C13.4587 11.9567 11.9761 10.8977 10.147 11.1673C10.1662 12.7847 11.9569 14.0169 13.4779 13.4971Z" fill="black"/>
<path d="M19.3312 13.5357C20.7175 13.9786 22.7777 12.727 22.6622 11.2059C20.9486 10.8209 19.1579 12.0724 19.3312 13.5357Z" fill="black"/>
<path d="M19.2735 10.2239C20.9101 10.2046 22.1038 8.89536 21.815 7.39353C20.1977 7.35502 18.6958 9.18417 19.2735 10.2239Z" fill="black"/>
<path d="M3.50426 12.6885C2.92664 11.3407 1.07824 10.9171 0 11.9183C0.73166 13.2854 2.40677 13.632 3.50426 12.6885Z" fill="black"/>
<path d="M5.41041 9.22269C5.29489 7.77862 3.83157 6.87368 2.349 7.39354C2.5993 8.95313 4.10113 9.81957 5.41041 9.22269Z" fill="black"/>
<path d="M28.6887 17.2709C29.4974 18.5802 31.1148 18.8113 32.2508 17.7908C31.6539 16.5008 29.8632 16.212 28.6887 17.2709Z" fill="black"/>
<path d="M0.519874 17.7717C1.65587 18.8114 3.27322 18.5803 4.0819 17.3096C3.13844 16.2121 1.3478 16.4239 0.519874 17.7717Z" fill="black"/>
<path d="M16.4046 19.1579C17.0977 19.1579 17.6176 18.638 17.5983 17.9449C17.5791 17.2902 17.0592 16.7511 16.4238 16.7511C15.7499 16.7319 15.1916 17.2902 15.1916 17.9449C15.1723 18.638 15.7114 19.1579 16.4046 19.1579Z" fill="black"/>
<path d="M30.4216 7.41283C29.0546 6.85446 27.5913 7.70165 27.3602 9.20347C28.708 9.81961 30.3254 8.87615 30.4216 7.41283Z" fill="black"/>
<path d="M16.7126 3.60054C17.8679 2.54155 17.8679 0.943456 16.7319 0C15.5189 0.750914 15.4804 2.58006 16.7126 3.60054Z" fill="black"/>
<path d="M24.4913 3.29252C23.2013 3.11924 21.892 4.89062 22.4311 6.1614C23.8752 6.25767 24.9727 4.71733 24.4913 3.29252Z" fill="black"/>
<path d="M21.9883 20.3518C22.0268 21.7766 23.4709 22.6815 24.9919 22.2387C24.8764 20.7368 23.3746 19.8126 21.9883 20.3518Z" fill="black"/>
<path d="M9.95443 6.1999C10.3395 6.27691 10.455 6.12288 10.4743 5.75705C10.5513 4.50553 9.66561 3.44655 8.29856 3.27326C7.85572 4.50553 8.7029 5.96885 9.95443 6.1999Z" fill="black"/>
<path d="M10.3395 20.1976C9.01094 20.1014 7.87494 20.9678 7.79793 22.2193C9.0302 22.6429 10.3395 22.046 10.7823 20.8715C10.9364 20.3902 10.8016 20.2361 10.3395 20.1976Z" fill="black"/>
<path d="M29.2857 12.7077C30.4987 13.6126 32.0583 13.2661 32.7707 11.9568C31.7887 10.917 29.9018 11.3021 29.2857 12.7077Z" fill="black"/>
</svg>
